<?xml version="1.0" encoding="utf-8"?>
<!-- Generator: Adobe Illustrator 20.1.0, SVG Export Plug-In . SVG Version: 6.00 Build 0)  -->
<svg version="1.1"
	 id="Layer_1" xmlns:cc="http://creativecommons.org/ns#" xmlns:dc="http://purl.org/dc/elements/1.1/" xmlns:inkscape="http://www.inkscape.org/namespaces/inkscape" xmlns:rdf="http://www.w3.org/1999/02/22-rdf-syntax-ns#" xmlns:sodipodi="http://sodipodi.sourceforge.net/DTD/sodipodi-0.dtd" xmlns:svg="http://www.w3.org/2000/svg"
	 xmlns="http://www.w3.org/2000/svg" xmlns:xlink="http://www.w3.org/1999/xlink" x="0px" y="0px" viewBox="0 0 100 92"
	 style="enable-background:new 0 0 100 92;" xml:space="preserve">
<g transform="translate(0,-952.36218)">
	<path d="M16.3,959.4c-2.2,0.1-3.8,1.7-4.3,3.6l-0.6,3.1c-3.7,1.4-6.4,5.1-6.4,9.3v46c0,5.5,4.4,10,9.9,10h70.2
		c5.5,0,9.9-4.5,9.9-10v-46c0-5.5-4.4-10-9.9-10H32.5L32,963c-0.6-2.1-2.4-3.6-4.3-3.6L16.3,959.4z M14.9,971.4
		c23.4,0,46.8,0,70.2,0c2.2,0,3.9,1.7,3.9,4v46c0,2.3-1.7,4-3.9,4H14.9c-2.2,0-3.9-1.7-3.9-4v-46C11,973.1,12.7,971.4,14.9,971.4z
		 M50,972.3c-14.3,0-26,11.7-26,26c0,14.3,11.7,26,26,26c14.3,0,26-11.7,26-26C76,984,64.3,972.3,50,972.3L50,972.3z M77,978.4
		c0,2.8,2.2,5,5,5s5-2.2,5-5s-2.2-5-5-5C79,973.3,77.1,976.2,77,978.4z M50,978.3c11.1,0,20,8.9,20,20c0,11.1-8.9,20-20,20
		c-11.1,0-20-8.9-20-20C30,987.2,38.9,978.3,50,978.3z M50,986.3c-6.6,0-12,5.4-12,12c0,6.6,5.4,12,12,12c6.6,0,12-5.4,12-12
		C62,991.7,56.6,986.3,50,986.3z M50,992.3c3.4,0,6,2.6,6,6c0,3.4-2.6,6-6,6c-3.4,0-6-2.7-6-6C44,995,46.6,992.3,50,992.3z"/>
</g>
</svg>
